<svg xmlns="http://www.w3.org/2000/svg" width="15.858" height="15.227" viewBox="0 0 15.858 15.227">
  <g id="Group_3512" data-name="Group 3512" transform="translate(0.35 -10.65)">
    <path id="Path_24591" data-name="Path 24591" d="M88.49,17.316a3.158,3.158,0,1,1,3.158-3.158A3.162,3.162,0,0,1,88.49,17.316Zm0-5.368A2.211,2.211,0,1,0,90.7,14.158,2.213,2.213,0,0,0,88.49,11.947Z" transform="translate(-82.806 0)" fill="#f59825" stroke="#f59825" stroke-width="0.7"/>
    <path id="Path_24592" data-name="Path 24592" d="M324.579,356.753h-3.474A1.107,1.107,0,0,1,320,355.648v-2.21a1.106,1.106,0,0,1,1.105-1.105h3.474a1.106,1.106,0,0,1,1.105,1.105v2.21A1.107,1.107,0,0,1,324.579,356.753Zm-3.474-3.474a.158.158,0,0,0-.158.158v2.21a.158.158,0,0,0,.158.158h3.474a.158.158,0,0,0,.158-.158v-2.21a.158.158,0,0,0-.158-.158Z" transform="translate(-310.526 -331.227)" fill="#f59825" stroke="#f59825" stroke-width="0.7"/>
    <path id="Path_24593" data-name="Path 24593" d="M365.352,270.474h-2.21a.474.474,0,0,1-.474-.474v-1.421a1.579,1.579,0,0,1,3.158,0V270A.474.474,0,0,1,365.352,270.474Zm-1.737-.947h1.263v-.947a.632.632,0,1,0-1.263,0Z" transform="translate(-351.931 -248.421)" fill="#f59825" stroke="#f59825" stroke-width="0.7"/>
    <path id="Path_24594" data-name="Path 24594" d="M7.895,272.684H.474A.474.474,0,0,1,0,272.211V270a3,3,0,0,1,3-3H8.526a2.991,2.991,0,0,1,1.5.4.474.474,0,1,1-.477.819,2.046,2.046,0,0,0-1.026-.275H3A2.055,2.055,0,0,0,.947,270v1.737H7.895a.474.474,0,0,1,0,.947Z" transform="translate(0 -248.421)" fill="#f59825" stroke="#f59825" stroke-width="0.7"/>
  </g>
</svg>
