<svg xmlns="http://www.w3.org/2000/svg" width="24" height="24" viewBox="0 0 24 24">
  <g id="Group_3588" data-name="Group 3588" transform="translate(-25 -349)">
    <rect id="Rectangle_5506" data-name="Rectangle 5506" width="24" height="24" transform="translate(25 349)" fill="none"/>
    <g id="experience" transform="translate(31 356)">
      <path id="Path_2100" data-name="Path 2100" d="M11,2.23H8.653V1.644A1.648,1.648,0,0,0,7.009,0H5.1A1.648,1.648,0,0,0,3.454,1.644V2.23H1.1A1.1,1.1,0,0,0,0,3.326V4.792a.343.343,0,0,0,.344.344H5.352V4.868a.228.228,0,0,1,.229-.229h.943a.228.228,0,0,1,.229.229v.268h5.008a.343.343,0,0,0,.344-.344V3.339A1.109,1.109,0,0,0,11,2.23ZM4.677,1.644A.424.424,0,0,1,5.1,1.223H7.009a.424.424,0,0,1,.421.421V2.23H4.677Z" fill="#585858"/>
      <path id="Path_2101" data-name="Path 2101" d="M14.594,45.3H10.057a.688.688,0,0,1-1.364,0H4.144a.343.343,0,0,0-.344.344v3.3a1.1,1.1,0,0,0,1.1,1.1h8.933a1.109,1.109,0,0,0,1.109-1.109V45.644A.343.343,0,0,0,14.594,45.3Z" transform="translate(-3.316 -39.527)" fill="#585858"/>
    </g>
  </g>
</svg>
